<svg width="129" height="127" viewBox="0 0 129 127" fill="none" xmlns="http://www.w3.org/2000/svg">
<path d="M50.011 29.3613C35.8227 29.3613 24.3782 40.8084 24.3782 55C24.3782 69.1917 35.8227 80.6387 50.011 80.6387C64.1997 80.6387 75.6444 69.1917 75.6444 55C75.6444 40.8084 64.1997 29.3613 50.011 29.3613ZM50.011 71.6687C40.842 71.6687 33.3464 64.1934 33.3464 55C33.3464 45.8067 40.82 38.3315 50.011 38.3315C59.2024 38.3315 66.6761 45.8067 66.6761 55C66.6761 64.1934 59.18 71.6687 50.011 71.6687ZM82.6717 28.3125C82.6717 31.6373 79.9944 34.2927 76.6927 34.2927C73.3687 34.2927 70.7141 31.615 70.7141 28.3125C70.7141 25.01 73.3911 22.3324 76.6927 22.3324C79.9944 22.3324 82.6717 25.01 82.6717 28.3125ZM99.6488 34.3819C99.2694 26.3712 97.4401 19.2754 91.5727 13.4291C85.7277 7.58284 78.6337 5.7531 70.6247 5.35144C62.3704 4.88285 37.6297 4.88285 29.3754 5.35144C21.3888 5.73078 14.2945 7.56053 8.42724 13.4068C2.55996 19.253 0.752927 26.3489 0.351367 34.3596C-0.117122 42.6157 -0.117122 67.3621 0.351367 75.6181C0.73062 83.6287 2.55996 90.7247 8.42724 96.5711C14.2945 102.417 21.3665 104.247 29.3754 104.649C37.6297 105.117 62.3704 105.117 70.6247 104.649C78.6337 104.269 85.7277 102.439 91.5727 96.5711C97.4177 90.7247 99.2471 83.6287 99.6488 75.6181C100.117 67.3621 100.117 42.638 99.6488 34.3819ZM88.9851 84.4767C87.2451 88.8504 83.8764 92.2197 79.4814 93.9824C72.9004 96.5934 57.284 95.9907 50.011 95.9907C42.7384 95.9907 27.0999 96.5711 20.541 93.9824C16.1684 92.2421 12.7998 88.8727 11.0374 84.4767C8.42724 77.8941 9.02957 62.2744 9.02957 55C9.02957 47.7257 8.44954 32.0836 11.0374 25.5233C12.7775 21.1497 16.1461 17.7803 20.541 16.0175C27.1222 13.4068 42.7384 14.0093 50.011 14.0093C57.284 14.0093 72.9224 13.4291 79.4814 16.0175C83.8541 17.758 87.2227 21.1274 88.9851 25.5233C91.5951 32.1059 90.9927 47.7257 90.9927 55C90.9927 62.2744 91.5951 77.9164 88.9851 84.4767Z" fill="url(#paint0_linear_5_81)"/>
<defs>
<linearGradient id="paint0_linear_5_81" x1="50" y1="25" x2="50" y2="105" gradientUnits="userSpaceOnUse">
<stop offset="0.238628" stop-color="#D829BC"/>
<stop offset="1" stop-color="#FF0B0B" stop-opacity="0"/>
</linearGradient>
</defs>
</svg>
