<svg width="100" height="100" viewBox="0 0 100 100" fill="none" xmlns="http://www.w3.org/2000/svg">
<path d="M97.9103 15.6466C96.7603 9.48776 93.3717 4.63724 89.0693 2.99114C81.2709 0 50 0 50 0C50 0 18.7293 0 10.9307 2.99114C6.62823 4.63752 3.23967 9.48776 2.0896 15.6466C0 26.8099 0 50.1012 0 50.1012C0 50.1012 0 73.392 2.0896 84.5556C3.23967 90.7144 6.62823 95.3628 10.9307 97.0088C18.7293 100 50 100 50 100C50 100 81.2706 100 89.0693 97.0088C93.3717 95.3628 96.7603 90.7144 97.9103 84.5556C100 73.392 100 50.1012 100 50.1012C100 50.1012 100 26.8099 97.9103 15.6466ZM39.7726 71.2476V28.9544L65.909 50.1016L39.7726 71.2476Z" fill="#F11C1C"/>
</svg>
